<svg xmlns="http://www.w3.org/2000/svg" width="30" height="30" viewBox="0 0 30 30">
    <path fill="#B8B8AA" fill-rule="nonzero" d="M22.885 5.34h-3.709v-.659a.677.677 0 0 0-.674-.674h-8.223a.677.677 0 0 0-.674.674v.66H6.2c-.655 0-1.191.619-1.191 1.375 0 .757.536 1.376 1.191 1.376h16.684c.656 0 1.192-.62 1.192-1.376 0-.756-.535-1.375-1.192-1.375zM6.558 24.106a2.19 2.19 0 0 0 2.184 2.184h11.603a2.19 2.19 0 0 0 2.184-2.184V9.655H6.558v14.45zM16.655 12.46c0-.656.619-1.192 1.375-1.192.757 0 1.376.536 1.376 1.192v10.816c0 .655-.62 1.192-1.376 1.192-.756 0-1.375-.537-1.375-1.192V12.46zm-6.974 0c0-.656.62-1.192 1.376-1.192.756 0 1.375.536 1.375 1.192v10.816c0 .655-.619 1.192-1.375 1.192-.757 0-1.376-.537-1.376-1.192V12.46z"/>
</svg>