<?xml version="1.0" encoding="UTF-8"?>
<svg width="1440px" height="1024px" viewBox="0 0 1440 1024" version="1.1" xmlns="http://www.w3.org/2000/svg" xmlns:xlink="http://www.w3.org/1999/xlink">
    <!-- Generator: Sketch 54.1 (76490) - https://sketchapp.com -->
    <title>Todo List</title>
    <desc>Created with Sketch.</desc>
    <g id="Page-1" stroke="none" stroke-width="1" fill="none" fill-rule="evenodd">
        <g id="Todo-List">
            <g id="bg_image" transform="translate(0.000000, -93.000000)">
                <rect id="Rectangle" fill="#B8B8AA" x="0" y="93" width="1440" height="1024"></rect>
                <path d="M1080,690.28 L1022.48924,690.28 L1022.48924,840.808 L979.510763,840.808 L979.510763,690.28 L922,690.28 L922,658.536 L1080,658.536 L1080,690.28 Z M1268.6,749.672 C1268.6,769.469432 1267.69887,783.207962 1265.89658,790.888 C1263.29327,803.517396 1257.08547,814.013292 1247.273,822.376 C1231.65315,835.688067 1212.42901,842.344 1189.6,842.344 C1166.57073,842.344 1147.24647,835.688067 1131.62662,822.376 C1122.0144,814.183959 1115.8066,803.688064 1113.00304,790.888 C1111.40101,783.378629 1110.6,769.6401 1110.6,749.672 C1110.6,729.7039 1111.40101,715.965371 1113.00304,708.456 C1115.8066,695.655936 1122.0144,685.160041 1131.62662,676.968 C1147.24647,663.655933 1166.57073,657 1189.6,657 C1212.42901,657 1231.65315,663.655933 1247.273,676.968 C1257.08547,685.330708 1263.29327,695.826604 1265.89658,708.456 C1267.69887,716.136038 1268.6,729.874568 1268.6,749.672 Z M1226.6,749.672 C1226.6,735.677263 1226.40108,726.802685 1226.00323,723.048 C1224.80967,711.783944 1221.52745,703.592026 1216.15645,698.472 C1209.39298,691.986634 1200.54091,688.744 1189.6,688.744 C1178.46016,688.744 1169.50864,691.986634 1162.74516,698.472 C1157.57309,703.592026 1154.39033,711.783944 1153.19677,723.048 C1152.79892,726.120015 1152.6,734.994593 1152.6,749.672 C1152.6,764.349407 1152.79892,773.223985 1153.19677,776.296 C1154.39033,787.560056 1157.57309,795.751974 1162.74516,800.872 C1169.50864,807.357366 1178.46016,810.6 1189.6,810.6 C1201.9334,810.6 1211.58115,806.504041 1218.54355,798.312 C1223.91454,791.997302 1226.6,775.784131 1226.6,749.672 Z M1681.6,749.672 C1681.6,769.469432 1680.69887,783.207962 1678.89658,790.888 C1676.29327,803.517396 1670.08547,814.013292 1660.273,822.376 C1644.65315,835.688067 1625.42901,842.344 1602.6,842.344 C1579.57073,842.344 1560.24647,835.688067 1544.62662,822.376 C1535.0144,814.183959 1528.8066,803.688064 1526.00304,790.888 C1524.40101,783.378629 1523.6,769.6401 1523.6,749.672 C1523.6,729.7039 1524.40101,715.965371 1526.00304,708.456 C1528.8066,695.655936 1535.0144,685.160041 1544.62662,676.968 C1560.24647,663.655933 1579.57073,657 1602.6,657 C1625.42901,657 1644.65315,663.655933 1660.273,676.968 C1670.08547,685.330708 1676.29327,695.826604 1678.89658,708.456 C1680.69887,716.136038 1681.6,729.874568 1681.6,749.672 Z M1639.6,749.672 C1639.6,735.677263 1639.40108,726.802685 1639.00323,723.048 C1637.80967,711.783944 1634.52745,703.592026 1629.15645,698.472 C1622.39298,691.986634 1613.54091,688.744 1602.6,688.744 C1591.46016,688.744 1582.50864,691.986634 1575.74516,698.472 C1570.57309,703.592026 1567.39033,711.783944 1566.19677,723.048 C1565.79892,726.120015 1565.6,734.994593 1565.6,749.672 C1565.6,764.349407 1565.79892,773.223985 1566.19677,776.296 C1567.39033,787.560056 1570.57309,795.751974 1575.74516,800.872 C1582.50864,807.357366 1591.46016,810.6 1602.6,810.6 C1614.9334,810.6 1624.58115,806.504041 1631.54355,798.312 C1636.91454,791.997302 1639.6,775.784131 1639.6,749.672 Z M1474.608,748.904 C1474.608,769.213435 1473.99679,782.525302 1472.77434,788.84 C1470.12572,802.834737 1463.40238,814.354621 1452.60413,823.4 C1438.74977,835.005391 1419.59845,840.808 1395.14959,840.808 L1316.608,840.808 L1316.608,658.536 L1395.14959,658.536 C1419.59845,658.536 1438.74977,664.338609 1452.60413,675.944 C1463.40238,684.989379 1470.12572,696.253266 1472.77434,709.736 C1473.99679,715.880031 1474.608,728.9359 1474.608,748.904 Z M1432.608,748.904 C1432.608,734.226593 1432.09197,723.901363 1431.05988,717.928 C1429.82138,710.930632 1427.24121,705.469353 1423.3193,701.544 C1415.8883,694.034629 1405.15479,690.28 1391.11846,690.28 L1358.608,690.28 L1358.608,809.064 L1391.11846,809.064 C1405.15479,809.064 1415.8883,805.309371 1423.3193,797.8 C1427.24121,793.874647 1429.82138,788.157371 1431.05988,780.648 C1432.09197,774.333302 1432.608,763.752074 1432.608,748.904 Z" id="TODO-Copy" fill="#A3A492" fill-rule="nonzero" opacity="0.400367374"></path>
                <path d="M211,33.28 L153.489237,33.28 L153.489237,183.808 L110.510763,183.808 L110.510763,33.28 L53,33.28 L53,1.536 L211,1.536 L211,33.28 Z M399.6,92.672 C399.6,112.469432 398.698868,126.207962 396.896578,133.888 C394.29327,146.517396 388.085474,157.013292 378.273004,165.376 C362.653154,178.688067 343.429011,185.344 320.6,185.344 C297.570734,185.344 278.246466,178.688067 262.626616,165.376 C253.014401,157.183959 246.806605,146.688064 244.003042,133.888 C242.401006,126.378629 241.6,112.6401 241.6,92.672 C241.6,72.7039002 242.401006,58.9653709 244.003042,51.456 C246.806605,38.655936 253.014401,28.160041 262.626616,19.968 C278.246466,6.65593344 297.570734,0 320.6,0 C343.429011,0 362.653154,6.65593344 378.273004,19.968 C388.085474,28.3307085 394.29327,38.8266035 396.896578,51.456 C398.698868,59.1360384 399.6,72.8745677 399.6,92.672 Z M357.6,92.672 C357.6,78.6772634 357.401077,69.8026854 357.003226,66.048 C355.809671,54.7839437 352.527446,46.5920256 347.156452,41.472 C340.392977,34.9866342 331.540915,31.744 320.6,31.744 C309.460159,31.744 300.508636,34.9866342 293.745161,41.472 C288.573092,46.5920256 285.390329,54.7839437 284.196774,66.048 C283.798923,69.1200154 283.6,77.9945933 283.6,92.672 C283.6,107.349407 283.798923,116.223985 284.196774,119.296 C285.390329,130.560056 288.573092,138.751974 293.745161,143.872 C300.508636,150.357366 309.460159,153.6 320.6,153.6 C332.933395,153.6 342.581148,149.504041 349.543548,141.312 C354.914543,134.997302 357.6,118.784131 357.6,92.672 Z M812.6,92.672 C812.6,112.469432 811.698868,126.207962 809.896578,133.888 C807.29327,146.517396 801.085474,157.013292 791.273004,165.376 C775.653154,178.688067 756.429011,185.344 733.6,185.344 C710.570734,185.344 691.246466,178.688067 675.626616,165.376 C666.014401,157.183959 659.806605,146.688064 657.003042,133.888 C655.401006,126.378629 654.6,112.6401 654.6,92.672 C654.6,72.7039002 655.401006,58.9653709 657.003042,51.456 C659.806605,38.655936 666.014401,28.160041 675.626616,19.968 C691.246466,6.65593344 710.570734,2.84217094e-14 733.6,2.84217094e-14 C756.429011,2.84217094e-14 775.653154,6.65593344 791.273004,19.968 C801.085474,28.3307085 807.29327,38.8266035 809.896578,51.456 C811.698868,59.1360384 812.6,72.8745677 812.6,92.672 Z M770.6,92.672 C770.6,78.6772634 770.401077,69.8026854 770.003226,66.048 C768.809671,54.7839437 765.527446,46.5920256 760.156452,41.472 C753.392977,34.9866342 744.540915,31.744 733.6,31.744 C722.460159,31.744 713.508636,34.9866342 706.745161,41.472 C701.573092,46.5920256 698.390329,54.7839437 697.196774,66.048 C696.798923,69.1200154 696.6,77.9945933 696.6,92.672 C696.6,107.349407 696.798923,116.223985 697.196774,119.296 C698.390329,130.560056 701.573092,138.751974 706.745161,143.872 C713.508636,150.357366 722.460159,153.6 733.6,153.6 C745.933395,153.6 755.581148,149.504041 762.543548,141.312 C767.914543,134.997302 770.6,118.784131 770.6,92.672 Z M605.608,91.904 C605.608,112.213435 604.996788,125.525302 603.774344,131.84 C601.125717,145.834737 594.40238,157.354621 583.604132,166.4 C569.749775,178.005391 550.598451,183.808 526.149586,183.808 L447.608,183.808 L447.608,1.536 L526.149586,1.536 C550.598451,1.536 569.749775,7.33860864 583.604132,18.944 C594.40238,27.9893786 601.125717,39.2532659 603.774344,52.736 C604.996788,58.8800307 605.608,71.9359002 605.608,91.904 Z M563.608,91.904 C563.608,77.2265933 563.091966,66.9013632 562.059883,60.928 C560.821383,53.9306317 558.241213,48.469353 554.319297,44.544 C546.888298,37.0346291 536.154793,33.28 522.11846,33.28 L489.608,33.28 L489.608,152.064 L522.11846,152.064 C536.154793,152.064 546.888298,148.309371 554.319297,140.8 C558.241213,136.874647 560.821383,131.157371 562.059883,123.648 C563.091966,117.333302 563.608,106.752074 563.608,91.904 Z" id="TODO-Copy-3" fill="#A3A492" fill-rule="nonzero" opacity="0.400367374"></path>
                <path d="M211,1057.28 L153.489237,1057.28 L153.489237,1207.808 L110.510763,1207.808 L110.510763,1057.28 L53,1057.28 L53,1025.536 L211,1025.536 L211,1057.28 Z M399.6,1116.672 C399.6,1136.46943 398.698868,1150.20796 396.896578,1157.888 C394.29327,1170.5174 388.085474,1181.01329 378.273004,1189.376 C362.653154,1202.68807 343.429011,1209.344 320.6,1209.344 C297.570734,1209.344 278.246466,1202.68807 262.626616,1189.376 C253.014401,1181.18396 246.806605,1170.68806 244.003042,1157.888 C242.401006,1150.37863 241.6,1136.6401 241.6,1116.672 C241.6,1096.7039 242.401006,1082.96537 244.003042,1075.456 C246.806605,1062.65594 253.014401,1052.16004 262.626616,1043.968 C278.246466,1030.65593 297.570734,1024 320.6,1024 C343.429011,1024 362.653154,1030.65593 378.273004,1043.968 C388.085474,1052.33071 394.29327,1062.8266 396.896578,1075.456 C398.698868,1083.13604 399.6,1096.87457 399.6,1116.672 Z M357.6,1116.672 C357.6,1102.67726 357.401077,1093.80269 357.003226,1090.048 C355.809671,1078.78394 352.527446,1070.59203 347.156452,1065.472 C340.392977,1058.98663 331.540915,1055.744 320.6,1055.744 C309.460159,1055.744 300.508636,1058.98663 293.745161,1065.472 C288.573092,1070.59203 285.390329,1078.78394 284.196774,1090.048 C283.798923,1093.12002 283.6,1101.99459 283.6,1116.672 C283.6,1131.34941 283.798923,1140.22398 284.196774,1143.296 C285.390329,1154.56006 288.573092,1162.75197 293.745161,1167.872 C300.508636,1174.35737 309.460159,1177.6 320.6,1177.6 C332.933395,1177.6 342.581148,1173.50404 349.543548,1165.312 C354.914543,1158.9973 357.6,1142.78413 357.6,1116.672 Z M812.6,1116.672 C812.6,1136.46943 811.698868,1150.20796 809.896578,1157.888 C807.29327,1170.5174 801.085474,1181.01329 791.273004,1189.376 C775.653154,1202.68807 756.429011,1209.344 733.6,1209.344 C710.570734,1209.344 691.246466,1202.68807 675.626616,1189.376 C666.014401,1181.18396 659.806605,1170.68806 657.003042,1157.888 C655.401006,1150.37863 654.6,1136.6401 654.6,1116.672 C654.6,1096.7039 655.401006,1082.96537 657.003042,1075.456 C659.806605,1062.65594 666.014401,1052.16004 675.626616,1043.968 C691.246466,1030.65593 710.570734,1024 733.6,1024 C756.429011,1024 775.653154,1030.65593 791.273004,1043.968 C801.085474,1052.33071 807.29327,1062.8266 809.896578,1075.456 C811.698868,1083.13604 812.6,1096.87457 812.6,1116.672 Z M770.6,1116.672 C770.6,1102.67726 770.401077,1093.80269 770.003226,1090.048 C768.809671,1078.78394 765.527446,1070.59203 760.156452,1065.472 C753.392977,1058.98663 744.540915,1055.744 733.6,1055.744 C722.460159,1055.744 713.508636,1058.98663 706.745161,1065.472 C701.573092,1070.59203 698.390329,1078.78394 697.196774,1090.048 C696.798923,1093.12002 696.6,1101.99459 696.6,1116.672 C696.6,1131.34941 696.798923,1140.22398 697.196774,1143.296 C698.390329,1154.56006 701.573092,1162.75197 706.745161,1167.872 C713.508636,1174.35737 722.460159,1177.6 733.6,1177.6 C745.933395,1177.6 755.581148,1173.50404 762.543548,1165.312 C767.914543,1158.9973 770.6,1142.78413 770.6,1116.672 Z M605.608,1115.904 C605.608,1136.21343 604.996788,1149.5253 603.774344,1155.84 C601.125717,1169.83474 594.40238,1181.35462 583.604132,1190.4 C569.749775,1202.00539 550.598451,1207.808 526.149586,1207.808 L447.608,1207.808 L447.608,1025.536 L526.149586,1025.536 C550.598451,1025.536 569.749775,1031.33861 583.604132,1042.944 C594.40238,1051.98938 601.125717,1063.25327 603.774344,1076.736 C604.996788,1082.88003 605.608,1095.9359 605.608,1115.904 Z M563.608,1115.904 C563.608,1101.22659 563.091966,1090.90136 562.059883,1084.928 C560.821383,1077.93063 558.241213,1072.46935 554.319297,1068.544 C546.888298,1061.03463 536.154793,1057.28 522.11846,1057.28 L489.608,1057.28 L489.608,1176.064 L522.11846,1176.064 C536.154793,1176.064 546.888298,1172.30937 554.319297,1164.8 C558.241213,1160.87465 560.821383,1155.15737 562.059883,1147.648 C563.091966,1141.3333 563.608,1130.75207 563.608,1115.904 Z" id="TODO-Copy-4" fill="#A3A492" fill-rule="nonzero" opacity="0.400367374"></path>
            </g>
        </g>
    </g>
</svg>