<svg xmlns="http://www.w3.org/2000/svg" viewBox="0 0 496 513">
    <g id="Artboard" stroke="none" stroke-width="1" fill="none" fill-rule="evenodd">
        <g id="airplane" fill-rule="nonzero">
            <g id="Group" transform="translate(7.000000, 7.000000)">
                <path d="M291.883,398.098 L346.633,446.008 C347.935,447.147 348.682,448.793 348.682,450.523 L348.682,466.65 C348.682,469.964 345.996,472.65 342.682,472.65 L133.317,472.65 L133.317,450.523 C133.317,448.793 134.064,447.147 135.366,446.008 L190.116,398.098 L291.883,398.098 L291.883,398.098 Z" id="Path" fill="#00BCE7"></path>
                <g transform="translate(281.000000, 149.000000)" id="Path">
                    <path d="M67.684,23.193 L67.684,14.885 C67.684,11.571 70.37,8.885 73.684,8.885 L127.951,8.885 C131.265,8.885 133.951,11.571 133.951,14.885 L133.951,53.314 L133.95,133.135 C133.95,151.218 119.464,165.917 101.463,166.262 C82.888,166.617 67.684,151.059 67.684,132.481 L67.684,23.193 Z" fill="#FFD151"></path>
                    <path d="M127.951,8.885 L108,8.885 C111.314,8.885 114,11.571 114,14.885 L114,53.314 L113.999,133.135 C113.999,147.918 104.315,160.435 90.947,164.701 C94.261,165.773 97.795,166.332 101.463,166.262 C119.464,165.918 133.95,151.218 133.95,133.135 L133.951,53.314 L133.951,14.885 C133.951,11.571 131.265,8.885 127.951,8.885 Z" fill="#F79B4A"></path>
                    <g>
                        <path d="M17.982,133.133 L194.217,133.134 C197.531,133.134 200.217,130.448 200.217,127.134 L200.217,87.298 C200.217,84.945 198.842,82.809 196.7,81.836 L19.166,1.139 C18.386,0.784 17.54,0.601 16.683,0.601 L6,0.601 C2.686,0.601 0,3.287 0,6.601 L0,127.134 C0,130.448 2.686,133.134 6,133.134 L17.982,133.133 Z" fill="#00BCE7"></path>
                        <g transform="translate(1.000000, 0.000000)" fill="#0094D4">
                            <path d="M4.982,133.133 C4.988,133.133 4.994,133.134 5.001,133.134 L16.089,133.133 L4.982,133.133 Z"></path>
                            <path d="M195.7,81.836 L18.166,1.139 C17.386,0.785 16.54,0.601 15.683,0.601 L5,0.601 C3.358,0.601 1.871,1.262 0.788,2.331 L175.7,81.836 C177.842,82.81 179.217,84.945 179.217,87.298 L179.217,127.134 C179.217,130.447 176.532,133.133 173.218,133.134 L193.217,133.134 C196.531,133.134 199.217,130.448 199.217,127.134 L199.217,87.298 C199.217,84.945 197.841,82.809 195.7,81.836 Z"></path>
                        </g>
                    </g>
                </g>
                <g transform="translate(0.000000, 149.000000)" id="Path">
                    <path d="M133.316,23.193 L133.316,14.885 C133.316,11.571 130.63,8.885 127.316,8.885 L73.049,8.885 C69.735,8.885 67.049,11.571 67.049,14.885 L67.049,53.314 L67.05,133.135 C67.05,151.218 81.536,165.917 99.537,166.262 C118.112,166.617 133.316,151.059 133.316,132.481 L133.316,23.193 Z" fill="#FFD151"></path>
                    <path d="M73.049,8.885 L93,8.885 C89.686,8.885 87,11.571 87,14.885 L87,53.314 L87.001,133.135 C87.001,147.918 96.685,160.435 110.053,164.701 C106.739,165.773 103.205,166.332 99.537,166.262 C81.536,165.918 67.05,151.218 67.05,133.135 L67.049,53.314 L67.049,14.885 C67.049,11.571 69.736,8.885 73.049,8.885 Z" fill="#F79B4A"></path>
                    <g>
                        <path d="M183.018,133.133 L6.783,133.134 C3.469,133.134 0.783,130.448 0.783,127.134 L0.783,87.298 C0.783,84.945 2.158,82.809 4.3,81.836 L181.834,1.139 C182.614,0.784 183.46,0.601 184.317,0.601 L195,0.601 C198.314,0.601 201,3.287 201,6.601 L201,127.134 C201,130.448 198.313,133.134 194.999,133.134 L183.018,133.133 Z" fill="#00BCE7"></path>
                        <g fill="#0094D4">
                            <path d="M195.018,133.133 C195.012,133.133 195.006,133.134 194.999,133.134 L183.911,133.133 L195.018,133.133 Z"></path>
                            <path d="M4.301,81.836 L181.835,1.139 C182.615,0.785 183.461,0.601 184.318,0.601 L195,0.601 C196.642,0.601 198.129,1.262 199.212,2.331 L24.301,81.836 C22.159,82.81 20.784,84.945 20.784,87.298 L20.784,127.134 C20.784,130.447 23.469,133.133 26.782,133.134 L6.784,133.134 C3.47,133.134 0.784,130.448 0.784,127.134 L0.784,87.298 C0.784,84.945 2.159,82.809 4.301,81.836 Z"></path>
                        </g>
                    </g>
                </g>
                <path d="M298.982,79.535 C298.982,43.14 275.508,12.232 242.876,1.114 C241.663,0.701 240.338,0.701 239.125,1.114 C206.493,12.232 183.019,43.14 183.019,79.535 L183.019,381.534 L232.717,497.5 L249.283,497.5 L298.983,381.534 L298.982,79.535 Z" id="Path" fill="#B6E3EE"></path>
                <path d="M298.982,79.535 C298.982,43.14 275.508,12.232 242.876,1.114 C241.663,0.701 240.338,0.701 239.125,1.114 C236.348,2.06 233.644,3.16 231.009,4.384 C259.344,17.543 279,46.237 279,79.535 L279,381.534 L231.008,493.514 L232.716,497.5 L249.282,497.5 L298.982,381.534 L298.982,79.535 Z" id="Path" fill="#96D2E0"></path>
                <path d="M203.209,25.351 L278.791,25.351 C269.279,14.367 256.931,5.905 242.881,1.116 C241.665,0.702 240.336,0.702 239.119,1.116 C225.069,5.905 212.721,14.366 203.209,25.351 Z" id="Path" fill="#00BCE7"></path>
                <path d="M278.366,24.876 C276.858,23.161 275.28,21.509 273.637,19.924 C273.444,19.737 273.254,19.547 273.059,19.363 C272.611,18.939 272.153,18.525 271.696,18.111 C271.425,17.866 271.156,17.62 270.883,17.379 C270.446,16.994 270.003,16.615 269.557,16.239 C269.25,15.98 268.942,15.722 268.631,15.467 C268.196,15.11 267.757,14.756 267.314,14.408 C266.98,14.145 266.642,13.887 266.303,13.629 C265.869,13.298 265.435,12.967 264.994,12.644 C264.625,12.374 264.25,12.113 263.876,11.849 C263.452,11.55 263.031,11.246 262.601,10.954 C262.051,10.581 261.492,10.22 260.933,9.86 C260.38,9.503 259.821,9.154 259.258,8.811 C258.748,8.499 258.238,8.186 257.721,7.885 C257.344,7.666 256.96,7.456 256.579,7.242 C256.087,6.966 255.595,6.692 255.097,6.426 C254.71,6.22 254.32,6.019 253.93,5.819 C253.422,5.558 252.913,5.302 252.399,5.051 C252.014,4.863 251.627,4.678 251.238,4.496 C250.7,4.244 250.157,3.999 249.613,3.758 C249.243,3.594 248.873,3.429 248.5,3.271 C247.891,3.012 247.276,2.765 246.659,2.52 C246.344,2.395 246.031,2.265 245.713,2.143 C244.776,1.785 243.833,1.44 242.881,1.116 C241.665,0.702 240.336,0.702 239.12,1.116 C239.115,1.118 239.111,1.119 239.107,1.121 C238.342,1.382 237.585,1.658 236.83,1.94 C236.415,2.096 236.004,2.258 235.592,2.421 C235.305,2.534 235.018,2.648 234.732,2.764 C234.168,2.994 233.606,3.228 233.048,3.47 C233.004,3.489 232.961,3.508 232.917,3.527 C232.277,3.806 231.641,4.091 231.009,4.385 C241.709,9.354 251.168,16.541 258.802,25.352 L278.787,25.352 C278.648,25.191 278.506,25.035 278.366,24.876 Z" id="Path" fill="#0094D4"></path>
            </g>
            <g id="Group" fill="#543F3B">
                <path d="M491.32,232.607 L429.451,204.485 L429.451,164.886 C429.451,160.744 426.094,157.386 421.951,157.386 L355.683,157.386 C351.54,157.386 348.183,160.744 348.183,164.886 L348.183,167.546 L313.481,151.772 L313.481,86.536 C313.481,46.864 288.069,12.227 250.247,0.346 C248.784,-0.114 247.215,-0.114 245.752,0.346 C207.929,12.227 182.517,46.864 182.517,86.536 L182.517,151.773 L147.815,167.546 L147.815,164.886 C147.815,160.744 144.457,157.386 140.315,157.386 L74.049,157.386 C69.907,157.386 66.549,160.744 66.549,164.886 L66.549,204.485 L4.679,232.607 C2.002,233.824 0.282,236.494 0.282,239.435 L0.282,289.135 C0.282,291.124 1.072,293.032 2.479,294.438 C3.885,295.845 5.793,296.635 7.782,296.635 L49.185,296.635 C49.19,296.635 49.194,296.636 49.199,296.636 C49.204,296.636 49.208,296.635 49.213,296.635 L67.254,296.635 C70.784,315.468 87.339,329.769 107.182,329.769 C127.024,329.769 143.58,315.468 147.11,296.635 L156.859,296.635 C156.868,296.635 156.876,296.636 156.884,296.636 C156.893,296.636 156.901,296.635 156.909,296.635 L182.516,296.635 L182.516,388.536 C182.516,389.552 182.722,390.557 183.122,391.49 L188.074,403.044 L135.376,449.159 C135.325,449.204 135.28,449.255 135.23,449.301 C135.116,449.406 135.004,449.513 134.897,449.626 C134.824,449.702 134.755,449.78 134.685,449.859 C134.584,449.974 134.487,450.091 134.393,450.212 C134.331,450.292 134.27,450.373 134.211,450.456 C134.118,450.586 134.031,450.719 133.947,450.855 C133.898,450.933 133.849,451.011 133.803,451.091 C133.717,451.242 133.639,451.396 133.563,451.553 C133.528,451.625 133.492,451.695 133.46,451.768 C133.383,451.941 133.316,452.118 133.253,452.298 C133.231,452.36 133.205,452.421 133.185,452.484 C133.122,452.677 133.071,452.874 133.024,453.073 C133.011,453.127 132.994,453.18 132.983,453.234 C132.939,453.442 132.907,453.655 132.88,453.869 C132.874,453.917 132.863,453.963 132.858,454.011 C132.831,454.271 132.815,454.536 132.815,454.803 L132.815,479.653 C132.815,483.795 136.173,487.153 140.315,487.153 L224.119,487.153 L232.82,507.457 C234.002,510.215 236.714,512.003 239.714,512.003 L256.28,512.003 C259.28,512.003 261.991,510.215 263.174,507.458 L271.876,487.154 L355.679,487.154 C359.822,487.154 363.179,483.796 363.179,479.654 L363.179,454.804 C363.179,454.536 363.164,454.272 363.136,454.012 C363.131,453.964 363.12,453.918 363.114,453.87 C363.087,453.656 363.055,453.443 363.011,453.235 C362.999,453.181 362.982,453.128 362.97,453.074 C362.923,452.875 362.871,452.677 362.809,452.484 C362.789,452.421 362.763,452.361 362.741,452.299 C362.677,452.119 362.61,451.941 362.533,451.768 C362.501,451.696 362.465,451.626 362.431,451.555 C362.355,451.398 362.277,451.242 362.19,451.092 C362.144,451.012 362.095,450.934 362.046,450.855 C361.962,450.72 361.875,450.586 361.783,450.457 C361.724,450.374 361.662,450.292 361.599,450.211 C361.506,450.091 361.41,449.975 361.31,449.862 C361.24,449.782 361.169,449.703 361.095,449.626 C360.99,449.516 360.88,449.411 360.768,449.307 C360.717,449.259 360.671,449.207 360.618,449.161 L307.921,403.047 L312.873,391.493 C313.273,390.559 313.479,389.554 313.479,388.538 L313.479,296.637 L339.088,296.637 C339.097,296.637 339.105,296.638 339.114,296.638 C339.123,296.638 339.131,296.637 339.139,296.637 L348.886,296.637 C352.416,315.47 368.972,329.771 388.815,329.771 C408.657,329.771 425.211,315.471 428.741,296.637 L446.783,296.637 C446.788,296.637 446.792,296.638 446.797,296.638 C446.802,296.638 446.806,296.637 446.811,296.637 L488.214,296.637 C490.203,296.637 492.111,295.847 493.518,294.44 C494.924,293.034 495.714,291.126 495.714,289.137 L495.714,239.437 C495.717,236.493 493.998,233.823 491.32,232.607 Z M480.717,256.784 L454.3,256.784 L454.3,232.256 L480.717,244.264 L480.717,256.784 Z M396.319,281.634 L396.319,271.785 L439.3,271.785 L439.3,281.634 L396.319,281.634 Z M346.616,281.633 L346.616,271.784 L381.318,271.784 L381.318,281.633 L346.616,281.633 Z M363.184,172.385 L414.452,172.385 L414.452,197.666 L363.184,174.363 L363.184,172.385 L363.184,172.385 Z M439.3,225.438 L439.3,256.785 L388.828,256.785 C388.825,256.785 388.822,256.784 388.818,256.784 C388.814,256.784 388.812,256.785 388.808,256.785 L339.125,256.785 C339.122,256.785 339.118,256.784 339.115,256.784 C339.112,256.784 339.109,256.785 339.105,256.785 L313.481,256.785 L313.481,168.248 L439.3,225.438 Z M248,15.4 C254.697,17.732 260.897,20.934 266.498,24.851 L229.503,24.851 C235.103,20.933 241.303,17.731 248,15.4 Z M81.549,172.385 L132.816,172.385 L132.816,174.363 L81.549,197.666 L81.549,172.385 Z M149.385,271.784 L149.385,281.633 L114.683,281.633 L114.683,271.784 L149.385,271.784 Z M99.683,281.634 L56.701,281.634 L56.701,271.785 L99.683,271.785 L99.683,281.634 Z M41.701,232.256 L41.701,256.785 L15.283,256.785 L15.283,244.264 L41.701,232.256 Z M15.283,271.784 L41.7,271.784 L41.7,281.633 L15.283,281.633 L15.283,271.784 Z M107.183,314.767 C95.658,314.767 85.887,307.12 82.672,296.633 L107.162,296.633 C107.169,296.633 107.175,296.634 107.182,296.634 C107.189,296.634 107.195,296.633 107.202,296.633 L131.693,296.633 C128.48,307.12 118.709,314.767 107.183,314.767 Z M164.385,281.633 L164.385,271.784 L182.518,271.784 L182.518,281.633 L164.385,281.633 Z M207.043,447.301 L160.276,447.301 L194.287,417.538 L207.043,447.301 Z M147.817,472.151 L147.817,462.301 L213.472,462.301 L217.693,472.151 L147.817,472.151 Z M255.501,487.286 L255.501,388.534 C255.501,384.392 252.143,381.034 248.001,381.034 C243.859,381.034 240.501,384.392 240.501,388.534 L240.501,487.291 L235.991,476.768 C235.98,476.741 235.968,476.715 235.957,476.688 L225.342,451.92 C225.33,451.892 225.318,451.864 225.306,451.836 L203.991,402.099 C203.982,402.078 203.973,402.057 203.964,402.036 L197.518,386.994 L197.518,289.142 C197.518,289.139 197.519,289.136 197.519,289.132 C197.519,289.129 197.518,289.126 197.518,289.122 L197.518,235.358 C197.518,231.216 194.16,227.858 190.018,227.858 C185.876,227.858 182.518,231.216 182.518,235.358 L182.518,256.783 L156.895,256.783 C156.892,256.783 156.889,256.782 156.885,256.782 C156.881,256.782 156.879,256.783 156.875,256.783 L107.192,256.783 C107.189,256.783 107.186,256.782 107.182,256.782 C107.178,256.782 107.176,256.783 107.172,256.783 L56.701,256.783 L56.701,225.436 L182.518,168.246 L182.518,205.388 C182.518,209.53 185.876,212.888 190.018,212.888 C194.16,212.888 197.518,209.53 197.518,205.388 L197.518,86.535 C197.518,69.078 203.425,52.798 213.63,39.851 L282.369,39.851 C292.574,52.798 298.481,69.079 298.481,86.535 L298.482,386.994 L292.042,402.021 C292.026,402.056 292.012,402.091 291.997,402.126 L270.692,451.837 C270.68,451.865 270.668,451.892 270.656,451.92 L260.039,476.693 C260.029,476.717 260.018,476.74 260.008,476.764 L255.501,487.286 Z M278.307,472.151 L282.528,462.301 L348.182,462.301 L348.182,472.151 L278.307,472.151 Z M335.722,447.301 L288.956,447.301 L301.711,417.539 L335.722,447.301 Z M313.482,271.784 L331.616,271.784 L331.616,281.633 L313.482,281.633 L313.482,271.784 Z M388.818,314.767 C377.292,314.767 367.52,307.119 364.306,296.633 L388.799,296.633 C388.806,296.633 388.812,296.634 388.819,296.634 C388.826,296.634 388.832,296.633 388.839,296.633 L413.328,296.633 C410.113,307.12 400.343,314.767 388.818,314.767 Z M454.3,281.634 L454.3,271.785 L480.717,271.785 L480.717,281.635 L454.3,281.634 Z" id="Shape"></path>
                <path d="M273.634,90.333 C273.634,94.475 276.991,97.833 281.134,97.833 C285.277,97.833 288.634,94.475 288.634,90.333 C288.634,67.927 270.405,49.699 248,49.699 C225.594,49.699 207.366,67.927 207.366,90.333 C207.366,94.475 210.724,97.833 214.866,97.833 C219.008,97.833 222.366,94.475 222.366,90.333 C222.366,76.198 233.865,64.699 248,64.699 C262.135,64.699 273.634,76.198 273.634,90.333 Z" id="Path"></path>
            </g>
        </g>
    </g>
</svg>