<svg xmlns="http://www.w3.org/2000/svg" viewBox="0 0 509 512" >
    <g id="tv" stroke="none" stroke-width="1" fill="none" fill-rule="evenodd">
        <g id="television" fill-rule="nonzero">
            <path d="M295.582031,112.589844 C293.910156,89.921875 275.816406,72.070312 253.726562,72.070312 C231.640625,72.070312 213.546875,89.921875 211.875,112.589844 L295.582031,112.589844 Z" id="Path" fill="#8CC9F9"></path>
            <path d="M268.601562,74.917969 C263.980469,73.085938 258.96875,72.070312 253.726562,72.070312 C231.640625,72.070312 213.546875,89.921875 211.875,112.589844 L241.625,112.589844 C242.898438,95.300781 253.734375,80.820312 268.601562,74.917969 Z" id="Path" fill="#60B8FE"></path>
            <path d="M41.152344,471.066406 L41.152344,491.148438 C41.152344,498.664062 47.300781,504.8125 54.816406,504.8125 L452.640625,504.8125 C460.15625,504.8125 466.304688,498.664062 466.304688,491.148438 L466.304688,471.066406 L41.152344,471.066406 Z" id="Path" fill="#8CC9F9"></path>
            <path d="M70.902344,491.148438 L70.902344,471.066406 L41.152344,471.066406 L41.152344,491.148438 C41.152344,498.664062 47.300781,504.8125 54.816406,504.8125 L84.566406,504.8125 C77.050781,504.8125 70.902344,498.664062 70.902344,491.148438 Z" id="Path" fill="#23A8FE"></path>
            <path d="M40.203125,110.789062 C21.933594,110.789062 6.988281,125.734375 6.988281,144.003906 L6.988281,440.851562 C6.988281,459.121094 21.933594,474.066406 40.203125,474.066406 L373.972656,474.066406 L373.972656,110.789062 L40.203125,110.789062 Z" id="Path" fill="#B1DBFC"></path>
            <path d="M36.738281,440.851562 L36.738281,144.003906 C36.738281,125.734375 51.683594,110.789062 69.953125,110.789062 L40.203125,110.789062 C21.933594,110.789062 6.988281,125.734375 6.988281,144.003906 L6.988281,440.851562 C6.988281,459.121094 21.933594,474.066406 40.203125,474.066406 L69.953125,474.066406 C51.683594,474.066406 36.738281,459.121094 36.738281,440.851562 Z" id="Path" fill="#8CC9F9"></path>
            <path d="M360.574219,144.953125 L52.554688,144.953125 C46.257812,144.953125 41.152344,150.058594 41.152344,156.355469 L41.152344,428.5 C41.152344,434.796875 46.257812,439.902344 52.554688,439.902344 L360.574219,439.902344 C366.871094,439.902344 371.972656,434.796875 371.972656,428.5 L371.972656,156.355469 C371.972656,150.058594 366.867188,144.953125 360.574219,144.953125 Z" id="Path" fill="#60B8FE"></path>
            <path d="M70.902344,428.5 L70.902344,156.355469 C70.902344,150.058594 76.007812,144.953125 82.304688,144.953125 L52.554688,144.953125 C46.257812,144.953125 41.152344,150.058594 41.152344,156.355469 L41.152344,428.5 C41.152344,434.796875 46.257812,439.902344 52.554688,439.902344 L82.304688,439.902344 C76.007812,439.902344 70.902344,434.796875 70.902344,428.5 Z" id="Path" fill="#23A8FE"></path>
            <path d="M41.152344,405.0625 L41.152344,428.5 C41.152344,434.796875 46.257812,439.902344 52.554688,439.902344 L360.574219,439.902344 C366.871094,439.902344 371.972656,434.796875 371.972656,428.5 L371.972656,405.0625 L41.152344,405.0625 Z" id="Path" fill="#23A8FE"></path>
            <path d="M70.902344,428.5 L70.902344,405.0625 L41.152344,405.0625 L41.152344,428.5 C41.152344,434.796875 46.257812,439.902344 52.554688,439.902344 L82.304688,439.902344 C76.007812,439.902344 70.902344,434.796875 70.902344,428.5 Z" id="Path" fill="#0193FA"></path>
            <path d="M476.171875,110.789062 L371.972656,110.789062 L371.972656,474.066406 L476.171875,474.066406 C489.328125,474.066406 500.089844,463.304688 500.089844,450.152344 L500.089844,134.703125 C500.089844,121.550781 489.328125,110.789062 476.171875,110.789062 Z" id="Path" fill="#FF8188"></path>
            <polygon id="Path" fill="#FF656F" points="371.972656 110.789062 401.972656 110.789062 401.972656 474.066406 371.972656 474.066406"></polygon>
            <path d="M461.652344,170.574219 C461.652344,184.726562 450.183594,196.199219 436.03125,196.199219 C421.878906,196.199219 410.40625,184.726562 410.40625,170.574219 C410.40625,156.425781 421.878906,144.953125 436.03125,144.953125 C450.183594,144.953125 461.652344,156.425781 461.652344,170.574219 L461.652344,170.574219 Z" id="Path" fill="#B1DBFC"></path>
            <path d="M461.652344,258.175781 C461.652344,272.328125 450.183594,283.800781 436.03125,283.800781 C421.878906,283.800781 410.40625,272.328125 410.40625,258.175781 C410.40625,244.027344 421.878906,232.554688 436.03125,232.554688 C450.183594,232.554688 461.652344,244.027344 461.652344,258.175781 L461.652344,258.175781 Z" id="Path" fill="#B1DBFC"></path>
            <path d="M440.679688,170.574219 C440.679688,162.089844 444.808594,154.566406 451.164062,149.902344 C446.925781,146.792969 441.695312,144.953125 436.03125,144.953125 C421.878906,144.953125 410.40625,156.425781 410.40625,170.574219 C410.40625,184.726562 421.878906,196.199219 436.03125,196.199219 C441.695312,196.199219 446.925781,194.359375 451.164062,191.246094 C444.808594,186.585938 440.679688,179.0625 440.679688,170.574219 Z" id="Path" fill="#8CC9F9"></path>
            <path d="M440.679688,258.175781 C440.679688,249.691406 444.808594,242.167969 451.164062,237.503906 C446.925781,234.394531 441.695312,232.554688 436.03125,232.554688 C421.878906,232.554688 410.40625,244.027344 410.40625,258.175781 C410.40625,272.328125 421.878906,283.800781 436.03125,283.800781 C441.695312,283.800781 446.925781,281.960938 451.164062,278.847656 C444.808594,274.1875 440.679688,266.667969 440.679688,258.175781 Z" id="Path" fill="#8CC9F9"></path>
            <path d="M436.542969,203.386719 C454.808594,203.386719 469.667969,188.527344 469.667969,170.261719 C469.667969,152 454.808594,137.140625 436.542969,137.140625 C418.28125,137.140625 403.421875,152 403.421875,170.261719 C403.421875,188.527344 418.28125,203.386719 436.542969,203.386719 L436.542969,203.386719 Z M436.542969,152.140625 C446.535156,152.140625 454.667969,160.269531 454.667969,170.261719 C454.667969,180.253906 446.535156,188.386719 436.542969,188.386719 C426.550781,188.386719 418.421875,180.253906 418.421875,170.261719 C418.421875,160.269531 426.550781,152.140625 436.542969,152.140625 L436.542969,152.140625 Z" id="Shape" fill="#543F3B"></path>
            <path d="M469.667969,257.863281 C469.667969,239.597656 454.808594,224.742188 436.542969,224.742188 C418.28125,224.742188 403.421875,239.597656 403.421875,257.863281 C403.421875,276.128906 418.28125,290.984375 436.542969,290.984375 C454.808594,290.984375 469.667969,276.128906 469.667969,257.863281 L469.667969,257.863281 Z M436.542969,275.988281 C426.550781,275.988281 418.421875,267.855469 418.421875,257.863281 C418.421875,247.871094 426.550781,239.742188 436.542969,239.742188 C446.535156,239.742188 454.667969,247.871094 454.667969,257.863281 C454.667969,267.855469 446.535156,275.988281 436.542969,275.988281 L436.542969,275.988281 Z" id="Shape" fill="#543F3B"></path>
            <path d="M407.734375,321.207031 C403.167969,320.253906 398.773438,323.789062 398.773438,328.554688 C398.773438,332.65625 402.101562,336.054688 406.273438,336.054688 C410.523438,336.054688 413.773438,332.550781 413.773438,328.554688 C413.773438,325.070312 411.269531,321.867188 407.734375,321.207031 Z" id="Path" fill="#543F3B"></path>
            <path d="M438.011719,321.207031 C433.429688,320.269531 429.042969,323.804688 429.042969,328.554688 C429.042969,332.699219 432.421875,336.054688 436.542969,336.054688 C440.613281,336.054688 444.042969,332.75 444.042969,328.554688 C444.042969,324.871094 441.351562,321.832031 438.011719,321.207031 Z" id="Path" fill="#543F3B"></path>
            <path d="M465.351562,321.207031 C461.96875,321.839844 459.3125,324.910156 459.3125,328.554688 C459.3125,332.589844 462.605469,336.054688 466.824219,336.054688 C470.984375,336.054688 474.324219,332.640625 474.324219,328.554688 C474.320312,323.847656 469.96875,320.257812 465.351562,321.207031 Z" id="Path" fill="#543F3B"></path>
            <path d="M407.734375,353.464844 C402.589844,352.449219 397.894531,356.910156 398.914062,362.285156 C399.671875,365.941406 402.8125,368.316406 406.273438,368.316406 C410.488281,368.316406 413.773438,364.871094 413.773438,360.816406 C413.773438,357.449219 411.453125,354.242188 407.734375,353.464844 Z" id="Path" fill="#543F3B"></path>
            <path d="M436.542969,353.316406 C432.453125,353.316406 429.042969,356.648438 429.042969,360.824219 C429.042969,367.355469 437.035156,370.933594 441.84375,366.125 C443.242188,364.726562 444.042969,362.792969 444.042969,360.824219 C444.042969,356.648438 440.632812,353.316406 436.542969,353.316406 Z" id="Path" fill="#543F3B"></path>
            <path d="M465.351562,353.464844 C461.703125,354.230469 459.3125,357.359375 459.3125,360.816406 C459.3125,364.886719 462.609375,368.316406 466.824219,368.316406 C470.996094,368.316406 474.324219,364.914062 474.324219,360.816406 C474.320312,356.140625 469.992188,352.535156 465.351562,353.464844 Z" id="Path" fill="#543F3B"></path>
            <path d="M407.734375,385.734375 C403.292969,384.808594 398.773438,388.214844 398.773438,393.085938 C398.773438,397.1875 402.097656,400.585938 406.273438,400.585938 C410.460938,400.585938 413.773438,397.167969 413.773438,393.085938 C413.773438,389.773438 411.527344,386.523438 407.734375,385.734375 Z" id="Path" fill="#543F3B"></path>
            <path d="M438.011719,385.734375 C433.480469,384.808594 429.042969,388.300781 429.042969,393.085938 C429.042969,397.15625 432.351562,400.585938 436.542969,400.585938 C440.652344,400.585938 444.042969,397.246094 444.042969,393.085938 C444.042969,389.339844 441.273438,386.34375 438.011719,385.734375 Z" id="Path" fill="#543F3B"></path>
            <path d="M465.351562,385.734375 C461.566406,386.519531 459.3125,389.78125 459.3125,393.085938 C459.3125,397.191406 462.652344,400.585938 466.824219,400.585938 C471.046875,400.585938 474.324219,397.117188 474.324219,393.085938 C474.320312,388.261719 469.835938,384.808594 465.351562,385.734375 Z" id="Path" fill="#543F3B"></path>
            <path d="M407.734375,417.996094 C403.070312,417.074219 398.773438,420.648438 398.773438,425.355469 C398.773438,429.542969 402.195312,432.855469 406.273438,432.855469 C410.464844,432.855469 413.773438,429.40625 413.773438,425.355469 C413.773438,422.058594 411.523438,418.78125 407.734375,417.996094 Z" id="Path" fill="#543F3B"></path>
            <path d="M436.542969,417.855469 C431.726562,417.855469 428.257812,422.3125 429.191406,426.816406 C429.96875,430.511719 433.125,432.855469 436.542969,432.855469 C440.621094,432.855469 444.042969,429.53125 444.042969,425.355469 C444.042969,421.214844 440.679688,417.855469 436.542969,417.855469 Z" id="Path" fill="#543F3B"></path>
            <path d="M465.351562,418.003906 C461.835938,418.664062 459.3125,421.851562 459.3125,425.355469 C459.3125,429.5 462.714844,432.855469 466.824219,432.855469 C471.003906,432.855469 474.324219,429.425781 474.324219,425.355469 C474.320312,420.683594 470.019531,417.070312 465.351562,418.003906 Z" id="Path" fill="#543F3B"></path>
            <path d="M300.269531,175.402344 C297.339844,172.476562 292.59375,172.476562 289.664062,175.402344 C286.734375,178.332031 286.734375,183.082031 289.664062,186.011719 L322.949219,219.292969 C325.878906,222.222656 330.625,222.222656 333.554688,219.292969 C336.484375,216.363281 336.484375,211.617188 333.554688,208.6875 L300.269531,175.402344 Z" id="Path" fill="#543F3B"></path>
            <path d="M261.886719,184.960938 C258.957031,182.035156 254.207031,182.035156 251.277344,184.960938 C248.347656,187.890625 248.347656,192.640625 251.277344,195.570312 L313.386719,257.679688 C316.320312,260.609375 321.066406,260.609375 323.996094,257.679688 C326.921875,254.75 326.921875,250 323.996094,247.074219 L261.886719,184.960938 Z" id="Path" fill="#543F3B"></path>
            <path d="M476.6875,102.972656 C472,102.972656 307.210938,102.972656 302.535156,102.972656 C299.527344,89.542969 291.011719,78.203125 279.589844,71.328125 L322.730469,11.90625 C325.164062,8.554688 324.417969,3.863281 321.070312,1.429688 C317.714844,-1 313.027344,-0.257812 310.59375,3.09375 L265.269531,65.523438 C257.964844,63.832031 250.523438,63.832031 243.214844,65.523438 L197.890625,3.09375 C195.453125,-0.257812 190.765625,-1.003906 187.414062,1.433594 C184.0625,3.867188 183.316406,8.554688 185.75,11.90625 L228.890625,71.328125 C217.472656,78.203125 208.953125,89.546875 205.949219,102.972656 L40.714844,102.972656 C18.265625,102.972656 2.84217094e-14,121.238281 2.84217094e-14,143.691406 L2.84217094e-14,440.539062 C2.84217094e-14,460.757812 14.820312,477.574219 34.164062,480.71875 L34.164062,490.835938 C34.164062,502.507812 43.660156,512 55.332031,512 L236.550781,512 C240.695312,512 244.050781,508.644531 244.050781,504.5 C244.050781,500.359375 240.695312,497 236.550781,497 L55.332031,497 C51.929688,497 49.164062,494.234375 49.164062,490.835938 L49.164062,481.253906 L459.316406,481.253906 L459.316406,490.835938 C459.316406,494.234375 456.550781,497 453.152344,497 L271.550781,497 C267.40625,497 264.050781,500.359375 264.050781,504.5 C264.050781,508.644531 267.40625,512 271.550781,512 L453.152344,512 C464.824219,512 474.316406,502.507812 474.316406,490.835938 L474.316406,481.253906 L476.6875,481.253906 C494.007812,481.253906 508.101562,467.160156 508.101562,449.839844 L508.101562,309.613281 C508.101562,305.46875 504.746094,302.113281 500.601562,302.113281 C496.460938,302.113281 493.101562,305.46875 493.101562,309.613281 L493.101562,449.835938 C493.101562,458.886719 485.742188,466.253906 476.6875,466.253906 C466.371094,466.253906 390.316406,466.253906 379.988281,466.253906 C379.988281,464.335938 379.988281,128.230469 379.988281,117.972656 L476.6875,117.972656 C477.253906,117.972656 477.8125,118.003906 478.363281,118.058594 C486.628906,118.902344 493.101562,125.902344 493.101562,134.390625 L493.101562,274.613281 C493.101562,278.757812 496.460938,282.113281 500.601562,282.113281 C504.746094,282.113281 508.101562,278.757812 508.101562,274.613281 L508.101562,134.390625 C508.101562,117.066406 494.007812,102.972656 476.6875,102.972656 L476.6875,102.972656 Z M254.242188,79.253906 C269.328125,79.253906 282.429688,89.179688 286.996094,102.972656 L221.484375,102.972656 C226.054688,89.179688 239.152344,79.253906 254.242188,79.253906 L254.242188,79.253906 Z M364.988281,428.1875 C364.988281,430.335938 363.238281,432.085938 361.085938,432.085938 L53.066406,432.085938 C50.917969,432.085938 49.164062,430.335938 49.164062,428.1875 L49.164062,412.246094 L364.988281,412.246094 L364.988281,428.1875 Z M364.988281,397.246094 L49.164062,397.246094 L49.164062,156.039062 C49.164062,153.890625 50.914062,152.140625 53.066406,152.140625 L361.085938,152.140625 C363.238281,152.140625 364.988281,153.890625 364.988281,156.039062 L364.988281,397.246094 Z M364.988281,137.546875 C363.726562,137.28125 362.421875,137.136719 361.085938,137.136719 L53.066406,137.136719 C42.644531,137.136719 34.164062,145.617188 34.164062,156.039062 L34.164062,428.183594 C34.164062,438.605469 42.644531,447.085938 53.066406,447.085938 L361.085938,447.085938 C362.425781,447.085938 363.726562,446.941406 364.988281,446.675781 L364.988281,466.25 L41.664062,466.25 C25.292969,466.25 15,453.792969 15,440.535156 L15,143.6875 C15,129.507812 26.535156,117.972656 40.714844,117.972656 L364.988281,117.972656 L364.988281,137.546875 Z" id="Shape" fill="#543F3B"></path>
        </g>
    </g>
</svg>