<svg xmlns="http://www.w3.org/2000/svg" viewBox="0 0 513 378" >
    <g id="youtube" stroke="none" stroke-width="1" fill="none" fill-rule="evenodd">
        <g fill-rule="nonzero">
            <path d="M443.734,13.336 L330.86,3.437 C281.048,-0.897 230.954,-0.897 181.143,3.437 L68.268,13.336 C29.566,16.46 -0.191,48.877 0.001,87.704 L0.001,290.371 C-0.203,329.206 29.558,361.636 68.268,364.76 L181.207,374.573 C206.039,376.706 231.042,377.816 256.066,377.816 C281.09,377.816 306.093,376.749 330.925,374.573 L443.864,364.76 C482.523,361.573 512.212,329.16 512.003,290.371 L512.003,87.704 C512.194,48.877 482.436,16.459 443.734,13.336 Z" id="Path" fill="#E53935"></path>
            <path d="M357.782,180.077 L208.449,84.077 C203.498,80.884 196.897,82.309 193.704,87.26 C192.593,88.982 192.002,90.988 192.001,93.037 L192.001,285.037 C192.003,290.928 196.781,295.702 202.672,295.7 C204.721,295.699 206.727,295.108 208.449,293.997 L357.782,197.997 C362.736,194.81 364.169,188.21 360.982,183.255 C360.157,181.972 359.065,180.881 357.782,180.055 L357.782,180.077 L357.782,180.077 Z" id="Path" fill="#FAFAFA"></path>
            <path d="M256.001,377.816 C230.998,377.816 205.996,376.728 181.164,374.573 L68.268,364.738 C29.558,361.614 -0.203,329.184 0.001,290.349 L0.001,87.683 C-0.181,48.864 29.574,16.459 68.268,13.336 L181.164,3.437 C230.961,-0.897 281.041,-0.897 330.839,3.437 L443.799,13.25 C482.516,16.408 512.253,48.879 512.002,87.725 L512.002,290.392 C512.206,329.227 482.445,361.657 443.735,364.781 L443.735,364.781 L330.775,374.594 C306.028,376.771 281.004,377.816 256.001,377.816 Z M256.001,21.549 C231.596,21.549 207.233,22.616 183.02,24.706 L69.953,34.52 C42.339,36.837 21.159,60.015 21.334,87.725 L21.334,290.392 C21.218,318.092 42.431,341.219 70.038,343.491 L182.998,353.304 C231.568,357.513 280.412,357.513 328.982,353.304 L442.049,343.491 C469.638,341.176 490.809,318.035 490.668,290.35 L490.668,87.683 C490.784,59.983 469.571,36.856 441.964,34.584 L329.004,24.771 C304.769,22.666 280.435,21.607 256.001,21.592 L256.001,21.549 L256.001,21.549 Z" id="Shape" fill="#543F3B"></path>
            <path d="M202.668,295.704 C196.777,295.704 192.001,290.928 192.001,285.037 L192.001,93.037 C191.991,87.146 196.759,82.363 202.65,82.353 C204.707,82.35 206.72,82.941 208.449,84.056 L357.782,180.056 C362.742,183.234 364.187,189.832 361.009,194.792 C360.179,196.088 359.078,197.189 357.782,198.019 L208.449,294.019 C206.724,295.124 204.717,295.709 202.668,295.704 Z M213.334,112.579 L213.334,265.496 L332.267,189.037 L213.334,112.579 Z" id="Shape" fill="#543F3B"></path>
        </g>
    </g>
</svg>